<svg xmlns="http://www.w3.org/2000/svg" xmlns:xlink="http://www.w3.org/1999/xlink" viewBox="0,0,256,256" width="32px" height="32px"><g fill="#ffffff" fill-rule="nonzero" stroke="none" stroke-width="1" stroke-linecap="butt" stroke-linejoin="miter" stroke-miterlimit="10" stroke-dasharray="" stroke-dashoffset="0" font-family="none" font-weight="none" font-size="none" text-anchor="none" style="mix-blend-mode: normal"><g transform="scale(8,8)"><path d="M7,5c-1.09375,0 -2,0.90625 -2,2v18c0,1.09375 0.90625,2 2,2h18c1.09375,0 2,-0.90625 2,-2v-18c0,-1.09375 -0.90625,-2 -2,-2zM7,7h18v18h-5.1875v-6.75h2.59375l0.375,-3h-2.96875v-1.9375c0,-0.875 0.21484,-1.46875 1.46875,-1.46875h1.625v-2.71875c-0.27734,-0.03516 -1.23828,-0.09375 -2.34375,-0.09375c-2.30469,0 -3.875,1.38672 -3.875,3.96875v2.25h-2.625v3h2.625v6.75h-9.6875z"></path></g></g></svg>